<?xml version="1.0" standalone="no"?>
<!DOCTYPE svg PUBLIC "-//W3C//DTD SVG 1.1//EN" "http://www.w3.org/Graphics/SVG/1.1/DTD/svg11.dtd" >
<svg>
<metadata>
Created by FontForge 20110222 at Wed Apr 30 07:53:12 2014
 By www-data
Copyright (c) 2011, Jonathan Pinhorn (pinhorn.typedesign@gmail.com), with Reserved Font Names "Karla" and "Karla Tamil".
</metadata>
<defs>
<font id="Karla-Bold-Stencil" horiz-adv-x="304" >
  <font-face 
    font-family="Karla"
    font-weight="400"
    font-stretch="normal"
    units-per-em="1000"
    panose-1="0 0 0 0 0 0 0 0 0 0"
    ascent="800"
    descent="-200"
    x-height="486"
    cap-height="649"
    bbox="-76 -251 976 913"
    underline-thickness="50"
    underline-position="-50"
    stemh="107"
    stemv="118"
    unicode-range="U+0020-2019"
  />
    <missing-glyph />
    <glyph glyph-name="space" unicode=" " horiz-adv-x="253" 
 />
    <glyph glyph-name="space" unicode="&#xa0;" horiz-adv-x="253" 
 />
    <glyph glyph-name="exclam" unicode="!" horiz-adv-x="293" 
d="M99 219l-13 445h128l-14 -445h-101zM150 149c48 0 84 -35 84 -80s-36 -78 -84 -78s-82 33 -82 78s34 80 82 80z" />
    <glyph glyph-name="quotedbl" unicode="&#x22;" horiz-adv-x="383" 
d="M32 686h118l-16 -238h-87zM233 686h118l-16 -238h-87z" />
    <glyph glyph-name="numbersign" unicode="#" horiz-adv-x="678" 
d="M396 164l25 235h-93s8 77 8 78h93l14 129h111l-14 -129h94l-9 -78h-93l-17 -158h94l-8 -77h-94l-14 -131h-111zM362 241h-94l17 158l22 207h-111l-14 -129h-93l-8 -78h93l-17 -158h-93l-7 -77h92l-14 -131h111l14 131h94z" />
    <glyph glyph-name="dollar" unicode="$" horiz-adv-x="689" 
d="M261 656v-107c-25 -9 -55 -29 -55 -66s20 -57 67 -73l30 -12v161v178h84v-77c129 -13 194 -83 213 -190h-117c-7 40 -40 74 -96 86v-182l88 -31c100 -35 149 -83 149 -170c0 -47 -19 -88 -58 -123c-35 -30 -80 -49 -137 -58v112c31 9 62 31 62 71c0 38 -24 66 -72 84
l-32 12v-175v-197h-84v90c-69 7 -126 27 -169 62c-46 37 -69 88 -69 152h117c0 -64 42 -96 121 -105v194l-50 17c-112 37 -176 83 -176 178s76 152 184 169z" />
    <glyph glyph-name="percent" unicode="%" horiz-adv-x="765" 
d="M198 662c36 0 71 -13 96 -38c27 -26 41 -64 41 -113s-14 -87 -41 -114c-25 -25 -58 -38 -97 -38c-38 0 -70 13 -95 38c-27 27 -41 65 -41 114s14 87 41 113c26 25 58 38 96 38zM246 511c0 51 -16 76 -49 76c-32 0 -48 -25 -48 -76s16 -77 48 -77c33 0 49 26 49 77zM106 0
l440 649h119l-439 -649h-120zM573 290c38 0 70 -13 96 -38c27 -26 41 -64 41 -113s-14 -88 -41 -115c-25 -25 -57 -38 -96 -38s-71 13 -96 38c-27 27 -41 66 -41 115s14 87 41 113c26 25 58 38 96 38zM573 215c-32 0 -48 -26 -48 -77s16 -76 48 -76c28 0 49 21 49 76
c0 56 -21 77 -49 77z" />
    <glyph glyph-name="ampersand" unicode="&#x26;" horiz-adv-x="965" 
d="M386 -13v107c41 4 81 18 118 43l-163 147c-79 -11 -119 -42 -119 -92c0 -56 49 -94 120 -98v-108c-67 3 -124 22 -172 57c-52 39 -78 86 -78 142c0 87 61 140 183 159l-16 15c-48 43 -72 91 -72 143c0 46 19 83 57 112c27 20 59 34 98 41v-117c-4 -6 -53 -58 0 -116
c6 -7 13 -15 22 -22l23 -21l38 19c35 19 65 45 65 88c0 22 -8 39 -23 52c-31 27 -70 20 -81 19v103h20c65 0 117 -15 158 -46c37 -29 56 -65 56 -108s-12 -78 -37 -104c-24 -26 -54 -48 -91 -65l-40 -17l127 -115c41 49 76 110 105 183l80 -44c-29 -83 -66 -152 -110 -207
l17 -15c24 -21 42 -32 73 -32c32 0 57 22 60 74h107c-3 -109 -54 -178 -155 -178c-64 0 -114 24 -174 79c-59 -47 -125 -73 -196 -78z" />
    <glyph glyph-name="quotesingle" unicode="'" horiz-adv-x="180" 
d="M31 677h118l-16 -238h-87z" />
    <glyph glyph-name="parenleft" unicode="(" horiz-adv-x="400" 
d="M367 -54l-85 -64c-139 124 -209 269 -209 436c0 168 70 313 209 436l85 -62c-115 -120 -172 -237 -172 -374s57 -252 172 -372z" />
    <glyph glyph-name="parenright" unicode=")" horiz-adv-x="400" 
d="M32 692l86 62c139 -124 209 -269 209 -436c0 -165 -70 -311 -209 -436l-86 64c116 120 173 235 173 372s-58 254 -173 374z" />
    <glyph glyph-name="asterisk" unicode="*" horiz-adv-x="409" 
d="M75 447l86 81l-111 37l30 70l99 -50l-12 119h80l-12 -119l99 52l30 -71l-109 -37l86 -82l-59 -51l-74 101l-76 -101z" />
    <glyph glyph-name="plus" unicode="+" horiz-adv-x="544" 
d="M213 491h118v-194h195v-103h-195v-194h-118v194h-195v103h195v194z" />
    <glyph glyph-name="comma" unicode="," horiz-adv-x="253" 
d="M225 29c0 -49 -22 -93 -66 -133c-14 -13 -30 -23 -47 -32l-88 44c44 23 81 50 92 87c-19 3 -35 11 -48 22c-25 24 -27 70 4 98c15 14 36 21 63 21c53 0 90 -47 90 -107z" />
    <glyph glyph-name="hyphen" unicode="-" horiz-adv-x="373" 
d="M46 250v103h281v-103h-281z" />
    <glyph glyph-name="period" unicode="." horiz-adv-x="215" 
d="M106 149c48 0 84 -35 84 -80s-36 -78 -84 -78s-82 33 -82 78s34 80 82 80z" />
    <glyph glyph-name="slash" unicode="/" horiz-adv-x="472" 
d="M53 -81l257 826h121l-258 -826h-120z" />
    <glyph glyph-name="zero" unicode="0" horiz-adv-x="633" 
d="M297 662c-1 -2 1 -108 0 -108c-76 -11 -128 -81 -128 -230s52 -217 128 -229c1 -1 0 -109 0 -109c-73 5 -132 33 -175 83c-50 58 -75 143 -75 255s25 197 75 255c43 51 102 79 175 83zM337 555v107c63 -4 126 -27 173 -83c51 -59 76 -144 76 -255s-25 -196 -76 -255
c-43 -51 -100 -78 -173 -82v108c33 0 63 19 88 58c26 39 39 96 39 171c0 149 -42 214 -127 231z" />
    <glyph glyph-name="one" unicode="1" horiz-adv-x="357" 
d="M42 487v113c50 7 94 25 132 53h89v-653h-118v512c-34 -17 -68 -25 -103 -25z" />
    <glyph glyph-name="two" unicode="2" horiz-adv-x="605" 
d="M549 0h-332v108h332v-108zM178 108v-108h-118v111c0 78 28 135 83 170c19 12 40 23 65 32l133 51c59 23 85 55 85 106s-37 89 -104 89s-113 -32 -120 -95h-131c1 63 26 113 73 149c43 33 102 49 175 49c67 0 123 -18 167 -54c45 -37 67 -83 67 -137s-14 -97 -41 -130
c-27 -32 -68 -59 -125 -81l-135 -52c-52 -20 -74 -42 -74 -81v-19z" />
    <glyph glyph-name="three" unicode="3" horiz-adv-x="622" 
d="M309 555c-73 0 -115 -28 -127 -83h-124c7 64 33 112 78 145c43 30 99 45 168 45c71 0 129 -17 174 -50c47 -34 70 -78 70 -131c0 -67 -36 -117 -107 -141c79 -27 130 -82 130 -150s-26 -114 -71 -149c-48 -37 -110 -55 -187 -55c-73 0 -135 19 -185 56
c-56 41 -84 95 -84 162h126c2 -34 16 -61 41 -80c26 -19 60 -29 101 -29s73 9 96 27c23 19 35 42 35 70c0 57 -40 91 -131 91h-86v93h74c76 0 121 36 121 89s-36 90 -112 90z" />
    <glyph glyph-name="four" unicode="4" horiz-adv-x="595" 
d="M317 144h-295v89l332 423h114v-411h113v-101h-113v-144h-111v481l-195 -248h155v-89z" />
    <glyph glyph-name="five" unicode="5" horiz-adv-x="582" 
d="M508 541l-234 -1v109h234v-108zM233 540v109h-114l-30 -334h198c89 0 134 -33 134 -99c0 -69 -51 -121 -122 -121s-121 31 -121 99h-121c1 -65 24 -117 69 -154c43 -36 100 -54 171 -54c72 0 132 22 179 67c45 43 67 97 67 163c0 121 -86 188 -221 188
c-33 0 -67 -3 -103 -9z" />
    <glyph glyph-name="six" unicode="6" horiz-adv-x="607" 
d="M166 303c3 -76 23 -131 59 -164c97 -86 211 -34 211 58c0 31 -11 57 -34 77c-21 18 -47 27 -79 27c-64 0 -97 -37 -109 -68c0 0 -3 114 -4 113c-3 -2 5 4 24 18c31 23 70 34 117 34c60 0 110 -19 149 -58c39 -37 58 -87 58 -148s-22 -111 -65 -149s-100 -57 -170 -57
c-81 0 -148 31 -199 92s-77 140 -77 235c0 111 26 197 77 259c50 60 118 90 204 90c65 0 118 -17 158 -52c41 -35 62 -82 65 -139h-126c-7 52 -37 84 -92 84c-53 0 -94 -24 -123 -68c-29 -45 -44 -107 -44 -184z" />
    <glyph glyph-name="seven" unicode="7" horiz-adv-x="498" 
d="M301 649v-114h-277v114h277zM341 649h139v-113l-277 -536h-159l297 535v114z" />
    <glyph glyph-name="eight" unicode="8" horiz-adv-x="647" 
d="M259 411l43 -17l32 -12h8c29 1 54 9 76 24c23 16 35 37 35 63c0 52 -51 81 -111 85v108c58 0 111 -18 160 -53s73 -79 73 -133c0 -65 -46 -122 -130 -137c55 -22 94 -44 115 -67c25 -27 38 -60 38 -100c0 -55 -24 -100 -72 -134c-46 -32 -107 -49 -184 -52v109
c9 0 47 -6 96 19c25 13 38 29 38 48c0 39 -26 60 -69 77l-65 24l-39 15c-61 -4 -102 -23 -123 -58c-20 -33 -7 -77 36 -101c21 -13 50 -20 86 -23v-110c-73 3 -132 21 -178 54c-50 35 -75 80 -75 135c0 81 63 133 151 144c-58 28 -97 64 -118 109c-7 17 -11 36 -11 57
c0 109 92 173 231 177v-108c-28 -2 -52 -9 -72 -20c-25 -14 -37 -34 -37 -59s22 -46 66 -64z" />
    <glyph glyph-name="nine" unicode="9" horiz-adv-x="610" 
d="M305 553v108c71 -4 130 -34 179 -89c53 -61 80 -140 80 -237c0 -167 -50 -276 -150 -325c-67 -32 -152 -29 -211 -9c-29 10 -54 24 -75 42c-45 38 -68 88 -68 149h123c3 -60 47 -97 110 -97c101 0 152 83 152 250c0 18 -1 38 -4 59c-9 -52 -30 -91 -65 -118
c-31 -23 -70 -35 -117 -35c-61 0 -110 19 -149 57c-38 39 -57 88 -57 148c0 61 22 111 65 149c39 34 88 53 148 56c-1 -2 0 -107 0 -107c-19 -1 -39 -11 -60 -29c-21 -17 -31 -42 -31 -75c0 -64 49 -102 113 -102c31 0 58 9 80 28c22 20 33 45 33 75c0 31 -11 56 -33 75
c-17 15 -38 24 -63 27z" />
    <glyph glyph-name="colon" unicode=":" horiz-adv-x="270" 
d="M133 166c48 0 84 -35 84 -80s-36 -78 -84 -78s-82 33 -82 78s34 80 82 80zM133 463c48 0 84 -35 84 -80s-36 -78 -84 -78s-82 33 -82 78s34 80 82 80z" />
    <glyph glyph-name="semicolon" unicode=";" horiz-adv-x="308" 
d="M255 29c0 -49 -22 -93 -66 -133c-14 -13 -30 -23 -47 -32l-88 44c44 23 81 50 92 87c-19 3 -35 11 -48 22c-25 24 -27 70 4 98c15 14 36 21 63 21c53 0 90 -47 90 -107zM167 463c48 0 84 -35 84 -80s-36 -78 -84 -78s-82 33 -82 78s34 80 82 80z" />
    <glyph glyph-name="less" unicode="&#x3c;" horiz-adv-x="502" 
d="M379 617l78 -90l-291 -205l291 -204l-78 -90l-334 241v107z" />
    <glyph glyph-name="equal" unicode="=" horiz-adv-x="506" 
d="M79 198h348v-103h-348v103zM79 408h348v-102h-348v102z" />
    <glyph glyph-name="greater" unicode="&#x3e;" horiz-adv-x="502" 
d="M45 527l78 90l334 -241v-107l-334 -241l-78 90l290 204z" />
    <glyph glyph-name="question" unicode="?" horiz-adv-x="517" 
d="M485 481c0 -71 -33 -115 -108 -152c-31 -16 -52 -30 -62 -41c-19 -23 -22 -40 -22 -65v-29h-118v40c0 60 18 103 54 128c13 9 31 20 56 33c49 25 70 48 70 88c0 41 -34 72 -99 72s-104 -34 -109 -85h-123c7 116 88 192 229 192c71 0 128 -17 169 -52
c42 -35 63 -78 63 -129zM321 65c0 -45 -36 -79 -85 -79c-48 0 -81 34 -81 79s33 78 81 78c49 0 85 -33 85 -78z" />
    <glyph glyph-name="at" unicode="@" horiz-adv-x="1027" 
d="M618 73l-6 16l-3 191c0 41 -14 69 -49 69s-66 -14 -91 -41c-29 -32 -44 -70 -44 -114c0 -60 35 -92 82 -92s60 21 65 26v-93c-25 -19 -51 -29 -79 -29c-56 0 -93 20 -124 52c-34 37 -51 81 -51 134c0 69 24 127 72 176c47 48 103 72 169 72c88 0 145 -52 145 -159v-131
c0 -34 12 -51 35 -51c21 0 51 13 75 45c29 37 43 87 43 149c0 77 -26 140 -77 187c-55 51 -129 76 -220 76c-110 0 -200 -34 -270 -102c-69 -67 -104 -151 -104 -252c0 -98 33 -175 99 -232c69 -61 164 -91 284 -91v-97c-304 0 -502 186 -502 433c0 128 52 243 140 322
c44 40 96 71 156 92c61 22 124 33 190 33c67 0 126 -10 177 -29c103 -37 176 -105 216 -196c20 -45 30 -91 30 -140s-7 -91 -21 -127c-28 -71 -73 -120 -132 -145c-88 -39 -193 -16 -205 48z" />
    <glyph glyph-name="A" unicode="A" horiz-adv-x="626" 
d="M233 140l29 90l143 -1l-90 279l-92 -279c-18 -53 -30 -88 -30 -88l-46 -141h-125l221 649h149l212 -649h-125l-45 140h-201z" />
    <glyph glyph-name="B" unicode="B" horiz-adv-x="648" 
d="M254 547v102h101c72 0 128 -17 167 -51c37 -31 56 -72 56 -121c0 -73 -43 -128 -116 -149c73 -15 127 -68 127 -148s-40 -135 -119 -164c-30 -11 -68 -16 -114 -16h-100v103h97c76 0 108 33 108 84s-35 85 -108 85h-142l1 -272h-119v649h118v-102v-172h139
c71 0 107 33 107 85c0 53 -35 87 -106 87h-97z" />
    <glyph glyph-name="C" unicode="C" horiz-adv-x="634" 
d="M326 662c80 0 137 -20 180 -55c42 -34 69 -82 82 -143l-126 -23c-21 68 -66 114 -133 114c-45 0 -82 -19 -110 -57c-30 -41 -45 -99 -45 -172s13 -130 40 -171s63 -61 109 -61c92 0 139 49 139 120h127c0 -145 -99 -228 -260 -228c-86 0 -154 30 -205 90
c-51 61 -77 145 -77 250c0 107 26 190 79 250c51 57 117 86 200 86z" />
    <glyph glyph-name="D" unicode="D" horiz-adv-x="686" 
d="M255 541v108h48c99 0 178 -29 239 -88s92 -138 92 -237s-31 -177 -92 -236s-140 -88 -239 -88h-211v649h119v-542h92c61 0 111 21 149 62c36 40 54 92 54 155c0 65 -18 117 -54 157c-37 41 -87 61 -149 61zM211 107v-107h39v107h-39z" />
    <glyph glyph-name="E" unicode="E" horiz-adv-x="586" 
d="M510 547h-260v102h260v-102zM510 0h-260v103h260v-103zM210 0v274h281v102h-281l-1 273h-117v-649h118z" />
    <glyph glyph-name="F" unicode="F" horiz-adv-x="547" 
d="M93 649h118v-273h266v-101h-266v-275h-118v649zM502 547l-252 -1v103h252v-102z" />
    <glyph glyph-name="G" unicode="G" horiz-adv-x="677" 
d="M487 -1v256l-146 3v76h259v-334zM451 34c-30 -32 -70 -48 -121 -48c-81 0 -148 31 -201 92c-55 63 -82 144 -82 243c0 104 29 187 88 250c57 61 130 91 219 91c121 0 202 -51 249 -164l-121 -28c-35 57 -80 85 -134 85c-49 0 -90 -21 -123 -63c-34 -43 -51 -100 -51 -171
c0 -67 15 -122 46 -164c30 -41 70 -62 120 -62c43 0 78 14 105 41l6 6v-108z" />
    <glyph glyph-name="H" unicode="H" horiz-adv-x="706" 
d="M250 275v103h244v271h118v-649h-118v275h-244zM211 275v374h-118v-649h118v275z" />
    <glyph glyph-name="I" unicode="I" 
d="M93 0v649h118v-649h-118z" />
    <glyph glyph-name="J" unicode="J" horiz-adv-x="444" 
d="M16 27v118c51 -29 101 -44 149 -44c57 0 82 33 82 101v447h119v-447c0 -75 -18 -130 -54 -167c-32 -33 -76 -49 -132 -49s-111 14 -164 41z" />
    <glyph glyph-name="K" unicode="K" horiz-adv-x="654" 
d="M264 436l204 213h162l-286 -292l305 -357h-153l-231 275c-2 -2 -1 165 -1 161zM212 649v-267v-161v-221h-119v649h119z" />
    <glyph glyph-name="L" unicode="L" horiz-adv-x="494" 
d="M252 0v103h226v-103h-226zM211 103v-103h-118v649h118v-546z" />
    <glyph glyph-name="M" unicode="M" horiz-adv-x="874" 
d="M93 649h169l178 -386l178 386h163v-649h-119v493l-184 -422h-77l-190 436v-507h-118v649z" />
    <glyph glyph-name="N" unicode="N" horiz-adv-x="717" 
d="M91 649h129l286 -460v460h118v-649h-120l-295 476v-476h-118v649z" />
    <glyph glyph-name="O" unicode="O" horiz-adv-x="683" 
d="M324 -14c-81 3 -146 32 -195 86c-55 59 -82 144 -82 253c0 111 27 195 82 254c47 51 112 79 195 83c1 -1 0 -106 0 -106h-7c-36 0 -70 -20 -101 -61c-31 -40 -47 -97 -47 -172c0 -74 16 -131 47 -171c31 -39 67 -59 108 -59c-1 -1 0 -107 0 -107zM369 95
c80 11 145 80 145 228c0 75 -14 130 -43 167s-63 58 -102 63c0 0 -1 108 0 108c64 -4 133 -28 185 -84c55 -59 82 -143 82 -252c0 -110 -27 -195 -82 -255c-47 -50 -108 -78 -184 -83z" />
    <glyph glyph-name="P" unicode="P" horiz-adv-x="581" 
d="M248 649h71c147 0 233 -74 233 -207c0 -132 -86 -206 -233 -206h-110v-236h-119v649h119v-310h110c73 0 111 43 111 103c0 61 -38 105 -111 105h-71v102z" />
    <glyph glyph-name="Q" unicode="Q" horiz-adv-x="686" 
d="M294 -11h1v110c-31 9 -60 30 -87 63c-26 33 -39 87 -39 161c0 75 13 129 39 162c27 34 55 56 86 65c0 0 0 109 -1 109c-67 -8 -122 -35 -164 -80c-55 -59 -82 -143 -82 -254c0 -107 26 -190 79 -251c44 -49 100 -77 168 -85zM336 -14v108c113 -1 178 81 178 229
c0 149 -65 233 -178 232v107h5c89 0 160 -28 213 -85c55 -59 82 -143 82 -252c0 -180 -75 -287 -192 -324l16 -25c16 -25 40 -38 71 -39c29 0 61 8 97 23v-122c-27 -12 -57 -18 -89 -18c-65 0 -119 34 -164 101z" />
    <glyph glyph-name="R" unicode="R" horiz-adv-x="644" 
d="M250 545v102h83c77 0 136 -18 179 -55c42 -35 63 -83 63 -144c0 -92 -54 -161 -151 -186l174 -264h-154l-143 253h-90v-253h-118v649h118v-317h111c87 0 131 43 131 107c0 65 -40 108 -120 108h-83z" />
    <glyph glyph-name="S" unicode="S" horiz-adv-x="638" 
d="M332 554v108c128 -5 207 -71 219 -192h-117c-10 51 -44 79 -102 84zM292 554v108c-59 0 -109 -16 -152 -49c-42 -31 -63 -74 -63 -128c0 -92 55 -137 155 -176l129 -51c57 -21 81 -41 81 -88c0 -23 -12 -41 -35 -55c-23 -13 -48 -20 -75 -20v-109c151 4 241 74 241 191
c0 85 -54 140 -150 177l-141 55c-52 19 -76 37 -76 76s38 64 86 69zM292 97v-110c-60 4 -109 21 -148 52c-50 39 -76 93 -79 164h117c0 -53 28 -87 83 -101c8 -2 17 -4 27 -5z" />
    <glyph glyph-name="T" unicode="T" horiz-adv-x="532" 
d="M207 547v102h319v-102h-201v-547h-118v547zM167 547v102h-161v-102h161z" />
    <glyph glyph-name="U" unicode="U" horiz-adv-x="690" 
d="M366 -14v110c33 3 62 16 87 37s38 59 38 112v404h118v-404c0 -165 -95 -252 -243 -259zM327 -14v110c-34 3 -64 15 -89 36c-25 22 -37 60 -37 113v404h-118v-404c0 -165 96 -252 244 -259z" />
    <glyph glyph-name="V" unicode="V" horiz-adv-x="607" 
d="M20 649h125l158 -501l160 501h124l-223 -649h-124z" />
    <glyph glyph-name="W" unicode="W" horiz-adv-x="966" 
d="M20 649h132l143 -493l139 450h80l147 -452l152 495h133l-223 -649h-124l-122 366l-121 -366h-124z" />
    <glyph glyph-name="X" unicode="X" horiz-adv-x="684" 
d="M408 325l241 -325h-148l-171 230l-152 -230h-144l229 323l-230 326h145l164 -234l142 234h143z" />
    <glyph glyph-name="Y" unicode="Y" horiz-adv-x="604" 
d="M16 649h140l143 -259l150 259h139l-231 -381v-268h-118v268z" />
    <glyph glyph-name="Z" unicode="Z" horiz-adv-x="629" 
d="M73 0v102l343 438l-343 1v108h491v-101l-342 -439l342 -1v-108h-491z" />
    <glyph glyph-name="bracketleft" unicode="[" horiz-adv-x="352" 
d="M93 -141v931h247v-106h-129v-718h129v-107h-247z" />
    <glyph glyph-name="backslash" unicode="\" horiz-adv-x="472" 
d="M298 -80l-257 826h120l258 -826h-121z" />
    <glyph glyph-name="bracketright" unicode="]" horiz-adv-x="336" 
d="M243 790v-931h-247v107h129v718h-129v106h247z" />
    <glyph glyph-name="asciicircum" unicode="^" horiz-adv-x="527" 
d="M150 218h-130l198 385h96l197 -385h-130l-115 246z" />
    <glyph glyph-name="underscore" unicode="_" horiz-adv-x="768" 
d="M55 -158v103h659v-103h-659z" />
    <glyph glyph-name="grave" unicode="`" horiz-adv-x="356" 
d="M24 798l42 102l267 -132l-30 -74z" />
    <glyph glyph-name="a" unicode="a" horiz-adv-x="584" 
d="M387 190v75v48c0 68 -25 100 -88 100c-61 0 -96 -26 -96 -71h-129c0 111 82 157 222 157c100 0 165 -35 194 -105c10 -24 15 -52 15 -85v-309h-103l-9 65c-31 -53 -79 -79 -144 -79c-63 0 -111 15 -146 46c-32 29 -48 66 -48 111s18 80 53 104c35 25 84 37 145 37
c28 0 59 -3 94 -10v-75c-25 5 -48 7 -70 7c-64 0 -96 -21 -96 -64c0 -36 28 -66 92 -66c65 0 111 49 114 114z" />
    <glyph glyph-name="b" unicode="b" horiz-adv-x="614" 
d="M251 367v102c26 20 64 30 114 30s95 -23 136 -70s62 -108 62 -184s-22 -139 -65 -188c-42 -47 -94 -71 -157 -71c-60 0 -113 31 -142 98l-29 -84h-77v686h118v-413v-64c1 -34 14 -62 37 -84c22 -21 49 -32 80 -32c32 0 59 14 82 41c23 28 34 65 34 110
c0 91 -51 149 -114 149c-31 0 -58 -9 -79 -26z" />
    <glyph glyph-name="c" unicode="c" horiz-adv-x="530" 
d="M278 499c61 0 111 -23 144 -56c33 -32 53 -72 59 -121l-119 -3c-11 43 -42 74 -79 74s-63 -11 -83 -35c-23 -28 -34 -67 -34 -116s11 -87 32 -112s47 -37 77 -37c61 0 87 31 87 80h119c0 -53 -18 -98 -53 -133c-36 -36 -86 -54 -151 -54c-64 0 -118 23 -161 70
c-46 50 -69 112 -69 187c0 79 23 142 69 189c43 45 97 67 162 67z" />
    <glyph glyph-name="d" unicode="d" horiz-adv-x="614" 
d="M402 215v211v260h119v-686h-97l-14 75c-30 -59 -76 -89 -138 -89s-114 24 -156 71c-43 49 -65 112 -65 188s21 138 62 185c41 46 86 69 135 69s87 -10 114 -29v-102c-19 17 -45 25 -77 25s-59 -14 -82 -41c-22 -27 -33 -63 -33 -108c0 -91 51 -151 120 -151
c29 0 54 11 77 34s35 53 35 88z" />
    <glyph glyph-name="e" unicode="e" horiz-adv-x="530" 
d="M204 213v76h168c0 53 -17 88 -50 106c-13 7 -28 10 -46 10c-67 0 -105 -48 -112 -116v-75c3 -79 38 -133 111 -133c49 0 78 21 87 64h119c-8 -49 -30 -87 -67 -115c-38 -29 -84 -44 -139 -44c-64 0 -118 23 -161 70c-45 49 -67 111 -67 187c0 78 22 141 67 188
c43 45 96 68 161 68c67 0 120 -24 157 -71c53 -67 55 -164 46 -214z" />
    <glyph glyph-name="f" unicode="f" horiz-adv-x="366" 
d="M40 407v79h72v57c0 50 15 88 44 115c27 24 61 36 104 36c27 0 61 -4 101 -12l-23 -91c-51 18 -107 18 -107 -49v-56h89v-79h-89v-407h-119v407h-72z" />
    <glyph glyph-name="g" unicode="g" horiz-adv-x="582" 
d="M237 -11v83h159c111 0 166 -39 166 -116c0 -52 -27 -104 -76 -143c-55 -43 -123 -64 -206 -64c-80 0 -145 16 -195 49c-47 31 -70 70 -70 115c0 60 40 96 100 105c-39 24 -59 54 -59 89c0 47 32 79 79 92c-39 33 -59 75 -59 125c0 53 21 95 62 128c40 31 86 47 137 47
c52 0 95 -10 130 -29c4 38 20 69 49 92c28 23 61 35 99 35l-6 -113c-57 0 -87 -19 -89 -57c25 -31 37 -62 37 -94s-6 -59 -17 -81c-11 -21 -27 -39 -46 -54c-40 -32 -89 -48 -146 -48c-17 0 -34 1 -49 4v88c13 -6 29 -9 50 -9c61 0 91 39 91 92c0 55 -30 92 -91 92
s-94 -41 -94 -81c0 -19 2 -34 5 -45c0 0 1 -126 0 -126c-27 -8 -41 -24 -41 -48c0 -22 14 -36 41 -42v-89c-45 -7 -67 -30 -67 -68c0 -45 61 -75 133 -75s108 13 136 33c30 20 45 44 45 72c0 24 -17 41 -49 41h-159z" />
    <glyph glyph-name="h" unicode="h" horiz-adv-x="623" 
d="M211 686v-279c33 61 82 92 146 92c128 0 187 -86 187 -215v-284h-118v284c0 72 -36 109 -99 109s-113 -56 -116 -168v-225h-118v686h118z" />
    <glyph glyph-name="i" unicode="i" horiz-adv-x="328" 
d="M103 0v487h118v-487h-118zM89 643c0 43 26 69 73 69c45 0 73 -26 73 -69s-28 -69 -73 -69c-47 0 -73 26 -73 69z" />
    <glyph glyph-name="j" unicode="j" horiz-adv-x="335" 
d="M95 643c0 43 28 69 73 69c47 0 73 -26 73 -69s-26 -69 -73 -69c-45 0 -73 26 -73 69zM-76 -220l2 102c123 -55 187 -35 184 62v544h118v-546c3 -210 -151 -221 -304 -162z" />
    <glyph glyph-name="k" unicode="k" horiz-adv-x="575" 
d="M431 0l-166 237l-54 -45v-192h-118v686h118v-371l192 171h160l-215 -180l227 -306h-144z" />
    <glyph glyph-name="l" unicode="l" 
d="M93 0v686h118v-686h-118z" />
    <glyph glyph-name="m" unicode="m" horiz-adv-x="949" 
d="M525 394c31 70 86 105 165 105c58 0 103 -20 135 -59c31 -37 46 -89 46 -156v-284h-119v284c0 72 -36 109 -99 109s-106 -54 -109 -165v-228h-118v284c0 72 -36 109 -99 109s-113 -56 -116 -168v-225h-118v486h103l13 -84c32 65 83 97 154 97c81 0 135 -40 162 -105z" />
    <glyph glyph-name="n" unicode="n" horiz-adv-x="623" 
d="M196 486l13 -84c32 65 83 97 154 97c120 0 181 -86 181 -215v-284h-118v284c0 72 -36 109 -99 109s-113 -56 -116 -168v-225h-118v486h103z" />
    <glyph glyph-name="o" unicode="o" horiz-adv-x="566" 
d="M263 -13c-60 4 -109 25 -147 63c-46 46 -69 110 -69 192c0 83 23 148 69 194c37 37 86 58 147 62v-101c-19 0 -40 -13 -63 -39c-23 -25 -34 -64 -34 -115c0 -103 42 -146 97 -153v-103zM304 91c25 5 47 18 67 41s30 60 30 111c0 103 -41 146 -97 153v102
c51 -3 105 -19 146 -62c46 -47 69 -111 69 -194c0 -81 -23 -145 -69 -192c-37 -39 -86 -60 -146 -63v104z" />
    <glyph glyph-name="p" unicode="p" horiz-adv-x="610" 
d="M252 5c0 0 1 109 0 109c19 -14 41 -21 68 -21c28 0 60 12 84 37c27 28 40 65 40 112s-12 84 -35 111s-51 40 -84 40c-65 0 -111 -39 -114 -110v-244v-276h-118v723h97l11 -66c31 53 77 79 140 79c60 0 111 -23 154 -68c45 -48 68 -111 68 -188c0 -78 -23 -141 -69 -189
c-43 -45 -88 -68 -135 -68s-83 6 -107 19z" />
    <glyph glyph-name="q" unicode="q" horiz-adv-x="610" 
d="M398 -66v257v87c0 73 -47 115 -114 115c-65 0 -118 -57 -118 -150c0 -47 13 -85 40 -113c23 -25 52 -37 85 -37c25 0 48 7 67 21c0 0 0 -103 0 -102c-22 -17 -50 -26 -84 -26c-63 0 -115 23 -158 68c-46 48 -69 111 -69 189c0 77 22 139 67 188c42 45 93 68 154 68
c60 0 114 -28 146 -88l26 75h77v-561c0 -29 3 -48 10 -57c15 -19 31 -25 56 -33l-34 -86c-109 27 -151 82 -151 185z" />
    <glyph glyph-name="r" unicode="r" horiz-adv-x="416" 
d="M211 487v-97c29 70 73 105 132 105c11 0 26 -2 43 -7l-2 -118c-19 4 -37 6 -55 6c-79 0 -118 -54 -118 -163v-213h-118v487h118z" />
    <glyph glyph-name="s" unicode="s" horiz-adv-x="527" 
d="M49 148h110c1 -46 35 -69 101 -69c51 0 87 26 87 55s-19 43 -62 56l-106 38c-79 27 -118 72 -118 134c0 83 80 137 204 137c125 0 194 -61 197 -144h-111c-3 32 -31 52 -83 52s-82 -24 -82 -51c0 -23 20 -41 59 -52l115 -43c76 -25 118 -62 118 -125
c0 -40 -19 -75 -57 -104c-39 -31 -91 -46 -156 -46c-129 0 -215 59 -216 162z" />
    <glyph glyph-name="t" unicode="t" horiz-adv-x="395" 
d="M350 95l17 -83c-44 -17 -79 -26 -104 -26c-51 0 -88 12 -117 36c-31 27 -46 65 -46 113v272h-68v79h68v128h118v-128h132v-79h-132v-268c0 -40 19 -60 57 -60c19 0 44 5 75 16z" />
    <glyph glyph-name="u" unicode="u" horiz-adv-x="627" 
d="M416 0v88c-31 -65 -80 -97 -148 -97c-86 0 -143 34 -170 101c-10 23 -15 52 -15 85v310h118v-298c0 -64 35 -95 79 -95c45 0 74 13 97 38c25 29 38 67 39 115v240h118v-487h-118z" />
    <glyph glyph-name="v" unicode="v" horiz-adv-x="519" 
d="M12 486h136l111 -369l112 369h136l-181 -486h-133z" />
    <glyph glyph-name="w" unicode="w" horiz-adv-x="758" 
d="M12 486h124l98 -347l93 320h107l93 -321l99 348h118l-160 -486h-116l-90 291l-88 -291h-117z" />
    <glyph glyph-name="x" unicode="x" horiz-adv-x="554" 
d="M349 242l188 -242h-144l-120 156l-112 -156h-145l189 242l-189 245h145l119 -156l113 156h144z" />
    <glyph glyph-name="y" unicode="y" horiz-adv-x="504" 
d="M19 486h134l117 -350l102 350h120l-186 -574c-39 -116 -91 -163 -176 -163c-43 0 -87 11 -130 32v104c35 -22 70 -33 105 -33c47 0 75 41 94 101l15 47z" />
    <glyph glyph-name="z" unicode="z" horiz-adv-x="495" 
d="M57 0v96l252 294h-252v96h382v-96l-244 -294h244v-96h-382z" />
    <glyph glyph-name="braceleft" unicode="{" horiz-adv-x="391" 
d="M387 -49v-107c-87 0 -153 23 -197 70c-41 43 -61 104 -61 182v91c0 56 -6 73 -33 73h-25v119h25c27 0 33 17 33 73v92c0 119 47 197 141 232c33 13 72 19 117 19v-107c-99 0 -141 -46 -141 -146v-96c0 -64 -27 -105 -66 -124v-5c39 -19 66 -60 66 -124v-96
c0 -100 42 -146 141 -146z" />
    <glyph glyph-name="bar" unicode="|" 
d="M93 -122v893h118v-893h-118z" />
    <glyph glyph-name="braceright" unicode="}" horiz-adv-x="391" 
d="M4 -156v107c99 0 141 46 141 146v96c0 64 27 105 66 124v5c-39 19 -66 60 -66 124v96c0 100 -42 146 -141 146v107c87 0 153 -24 198 -71c40 -43 60 -103 60 -180v-92c0 -56 6 -73 33 -73h25v-119h-25c-27 0 -33 -17 -33 -73v-91c0 -120 -47 -198 -141 -234
c-33 -12 -72 -18 -117 -18z" />
    <glyph glyph-name="asciitilde" unicode="~" horiz-adv-x="570" 
d="M184 265c-25 0 -47 -20 -64 -61l-63 34c23 87 61 140 128 140c23 0 52 -7 89 -21c57 -22 94 -33 110 -33c27 0 49 19 65 56l64 -41c-27 -85 -73 -127 -138 -127c-22 0 -56 9 -102 28c-49 17 -69 25 -89 25z" />
    <glyph glyph-name="sterling" unicode="&#xa3;" horiz-adv-x="602" 
d="M22 0v107h32c49 0 67 27 67 87v87h-83v79h83v84c0 144 81 218 204 218c112 0 176 -58 192 -175h-116c-7 44 -33 68 -80 68c-45 0 -82 -35 -82 -111v-84h171v-79h-171v-79c0 -43 -12 -75 -36 -95h136c67 0 91 24 98 77h129c-3 -61 -21 -107 -54 -136
c-37 -32 -95 -48 -172 -48h-318z" />
    <glyph glyph-name="dieresis" unicode="&#xa8;" horiz-adv-x="382" 
d="M94 902c41 0 71 -28 71 -67c0 -37 -30 -65 -71 -65s-70 28 -70 65c0 39 29 67 70 67zM217 836c0 39 30 67 70 67c41 0 71 -28 71 -67s-30 -65 -71 -65c-40 0 -70 26 -70 65z" />
    <glyph glyph-name="acute" unicode="&#xb4;" horiz-adv-x="356" 
d="M290 900l42 -102l-279 -104l-30 74z" />
    <glyph glyph-name="Agrave" unicode="&#xc0;" horiz-adv-x="626" 
d="M163 798l42 102l267 -132l-30 -74zM233 140l29 90l143 -1l-90 279l-92 -279c-18 -53 -30 -88 -30 -88l-46 -141h-125l221 649h149l212 -649h-125l-45 140h-201z" />
    <glyph glyph-name="Aacute" unicode="&#xc1;" horiz-adv-x="626" 
d="M429 900l42 -102l-279 -104l-30 74zM233 140l29 90l143 -1l-90 279l-92 -279c-18 -53 -30 -88 -30 -88l-46 -141h-125l221 649h149l212 -649h-125l-45 140h-201z" />
    <glyph glyph-name="Acircumflex" unicode="&#xc2;" horiz-adv-x="626" 
d="M316 913l208 -161l-75 -59l-133 101l-134 -101l-75 59zM233 140l29 90l143 -1l-90 279l-92 -279c-18 -53 -30 -88 -30 -88l-46 -141h-125l221 649h149l212 -649h-125l-45 140h-201z" />
    <glyph glyph-name="Atilde" unicode="&#xc3;" horiz-adv-x="626" 
d="M386 838c21 0 39 16 53 49l50 -33c-15 -72 -57 -123 -100 -123c-24 0 -44 10 -79 27c-30 15 -50 23 -61 23c-23 0 -43 -17 -59 -50l-47 28c16 81 56 128 107 128c18 0 39 -6 63 -19c48 -24 57 -30 73 -30zM233 140l29 90l143 -1l-90 279l-92 -279
c-18 -53 -30 -88 -30 -88l-46 -141h-125l221 649h149l212 -649h-125l-45 140h-201z" />
    <glyph glyph-name="Adieresis" unicode="&#xc4;" horiz-adv-x="626" 
d="M219 881c41 0 71 -28 71 -67c0 -37 -30 -65 -71 -65s-70 28 -70 65c0 39 29 67 70 67zM342 815c0 39 30 67 70 67c41 0 71 -28 71 -67s-30 -65 -71 -65c-40 0 -70 26 -70 65zM233 140l29 90l143 -1l-90 279l-92 -279c-18 -53 -30 -88 -30 -88l-46 -141h-125l221 649h149
l212 -649h-125l-45 140h-201z" />
    <glyph glyph-name="Egrave" unicode="&#xc8;" horiz-adv-x="588" 
d="M148 798l42 102l267 -132l-30 -74zM510 547h-260v102h260v-102zM510 0h-260v103h260v-103zM210 274v-274h-118v649h117l1 -273h281v-102h-281z" />
    <glyph glyph-name="Eacute" unicode="&#xc9;" horiz-adv-x="588" 
d="M414 900l42 -102l-279 -104l-30 74zM510 547h-260v102h260v-102zM510 0h-260v103h260v-103zM210 274v-274h-118v649h117l1 -273h281v-102h-281z" />
    <glyph glyph-name="Ecircumflex" unicode="&#xca;" horiz-adv-x="588" 
d="M312 913l208 -161l-75 -59l-133 101l-134 -101l-75 59zM510 547h-260v102h260v-102zM510 0h-260v103h260v-103zM210 274v-274h-118v649h117l1 -273h281v-102h-281z" />
    <glyph glyph-name="Edieresis" unicode="&#xcb;" horiz-adv-x="588" 
d="M205 881c41 0 71 -28 71 -67c0 -37 -30 -65 -71 -65s-70 28 -70 65c0 39 29 67 70 67zM328 815c0 39 30 67 70 67c41 0 71 -28 71 -67s-30 -65 -71 -65c-40 0 -70 26 -70 65zM510 547h-260v102h260v-102zM510 0h-260v103h260v-103zM210 274v-274h-118v649h117l1 -273h281
v-102h-281z" />
    <glyph glyph-name="Igrave" unicode="&#xcc;" 
d="M93 0v649h118v-649h-118zM-1 798l42 102l267 -132l-30 -74z" />
    <glyph glyph-name="Iacute" unicode="&#xcd;" 
d="M93 0v649h118v-649h-118zM265 900l42 -102l-279 -104l-30 74z" />
    <glyph glyph-name="Icircumflex" unicode="&#xce;" 
d="M93 0v649h118v-649h-118zM153 913l208 -161l-75 -59l-133 101l-134 -101l-75 59z" />
    <glyph glyph-name="Idieresis" unicode="&#xcf;" 
d="M93 0v649h118v-649h-118zM56 881c41 0 71 -28 71 -67c0 -37 -30 -65 -71 -65s-70 28 -70 65c0 39 29 67 70 67zM179 815c0 39 30 67 70 67c41 0 71 -28 71 -67s-30 -65 -71 -65c-40 0 -70 26 -70 65z" />
    <glyph glyph-name="Ntilde" unicode="&#xd1;" horiz-adv-x="720" 
d="M91 649h129l286 -460v460h118v-649h-120l-295 476v-476h-118v649zM429 838c21 0 39 16 53 49l50 -33c-15 -72 -57 -123 -100 -123c-24 0 -44 10 -80 27c-29 15 -49 23 -60 23c-23 0 -43 -17 -59 -50l-47 28c16 81 56 128 107 128c18 0 39 -6 63 -19c48 -24 57 -30 73 -30
z" />
    <glyph glyph-name="Ograve" unicode="&#xd2;" horiz-adv-x="683" 
d="M186 798l42 102l267 -132l-30 -74zM324 -14c-81 3 -146 32 -195 86c-55 59 -82 144 -82 253c0 111 27 195 82 254c47 51 112 79 195 83c1 -1 0 -106 0 -106h-7c-36 0 -70 -20 -101 -61c-31 -40 -47 -97 -47 -172c0 -74 16 -131 47 -171c31 -39 67 -59 108 -59
c-1 -1 0 -107 0 -107zM369 95c80 11 145 80 145 228c0 75 -14 130 -43 167s-63 58 -102 63c0 0 -1 108 0 108c64 -4 133 -28 185 -84c55 -59 82 -143 82 -252c0 -110 -27 -195 -82 -255c-47 -50 -108 -78 -184 -83z" />
    <glyph glyph-name="Oacute" unicode="&#xd3;" horiz-adv-x="683" 
d="M452 900l42 -102l-279 -104l-30 74zM324 -14c-81 3 -146 32 -195 86c-55 59 -82 144 -82 253c0 111 27 195 82 254c47 51 112 79 195 83c1 -1 0 -106 0 -106h-7c-36 0 -70 -20 -101 -61c-31 -40 -47 -97 -47 -172c0 -74 16 -131 47 -171c31 -39 67 -59 108 -59
c-1 -1 0 -107 0 -107zM369 95c80 11 145 80 145 228c0 75 -14 130 -43 167s-63 58 -102 63c0 0 -1 108 0 108c64 -4 133 -28 185 -84c55 -59 82 -143 82 -252c0 -110 -27 -195 -82 -255c-47 -50 -108 -78 -184 -83z" />
    <glyph glyph-name="Ocircumflex" unicode="&#xd4;" horiz-adv-x="683" 
d="M341 913l208 -161l-75 -59l-133 101l-134 -101l-75 59zM324 -14c-81 3 -146 32 -195 86c-55 59 -82 144 -82 253c0 111 27 195 82 254c47 51 112 79 195 83c1 -1 0 -106 0 -106h-7c-36 0 -70 -20 -101 -61c-31 -40 -47 -97 -47 -172c0 -74 16 -131 47 -171
c31 -39 67 -59 108 -59c-1 -1 0 -107 0 -107zM369 95c80 11 145 80 145 228c0 75 -14 130 -43 167s-63 58 -102 63c0 0 -1 108 0 108c64 -4 133 -28 185 -84c55 -59 82 -143 82 -252c0 -110 -27 -195 -82 -255c-47 -50 -108 -78 -184 -83z" />
    <glyph glyph-name="Otilde" unicode="&#xd5;" horiz-adv-x="683" 
d="M411 838c21 0 39 16 53 49l50 -33c-15 -72 -57 -123 -100 -123c-24 0 -44 10 -80 27c-29 15 -49 23 -60 23c-23 0 -43 -17 -59 -50l-47 28c16 81 56 128 107 128c18 0 39 -6 63 -19c48 -24 57 -30 73 -30zM324 -14c-81 3 -146 32 -195 86c-55 59 -82 144 -82 253
c0 111 27 195 82 254c47 51 112 79 195 83c1 -1 0 -106 0 -106h-7c-36 0 -70 -20 -101 -61c-31 -40 -47 -97 -47 -172c0 -74 16 -131 47 -171c31 -39 67 -59 108 -59c-1 -1 0 -107 0 -107zM369 95c80 11 145 80 145 228c0 75 -14 130 -43 167s-63 58 -102 63
c0 0 -1 108 0 108c64 -4 133 -28 185 -84c55 -59 82 -143 82 -252c0 -110 -27 -195 -82 -255c-47 -50 -108 -78 -184 -83z" />
    <glyph glyph-name="Odieresis" unicode="&#xd6;" horiz-adv-x="683" 
d="M244 881c41 0 71 -28 71 -67c0 -37 -30 -65 -71 -65s-70 28 -70 65c0 39 29 67 70 67zM367 815c0 39 30 67 70 67c41 0 71 -28 71 -67s-30 -65 -71 -65c-40 0 -70 26 -70 65zM324 -14c-81 3 -146 32 -195 86c-55 59 -82 144 -82 253c0 111 27 195 82 254
c47 51 112 79 195 83c1 -1 0 -106 0 -106h-7c-36 0 -70 -20 -101 -61c-31 -40 -47 -97 -47 -172c0 -74 16 -131 47 -171c31 -39 67 -59 108 -59c-1 -1 0 -107 0 -107zM369 95c80 11 145 80 145 228c0 75 -14 130 -43 167s-63 58 -102 63c0 0 -1 108 0 108
c64 -4 133 -28 185 -84c55 -59 82 -143 82 -252c0 -110 -27 -195 -82 -255c-47 -50 -108 -78 -184 -83z" />
    <glyph glyph-name="Ugrave" unicode="&#xd9;" horiz-adv-x="690" 
d="M191 798l42 102l267 -132l-30 -74zM366 -14v110c33 3 62 16 87 37s38 59 38 112v404h118v-404c0 -165 -95 -252 -243 -259zM327 -14c-148 7 -244 94 -244 259v404h118v-404c0 -53 12 -91 37 -113c25 -21 55 -33 89 -36v-110z" />
    <glyph glyph-name="Uacute" unicode="&#xda;" horiz-adv-x="690" 
d="M457 900l42 -102l-279 -104l-30 74zM366 -14v110c33 3 62 16 87 37s38 59 38 112v404h118v-404c0 -165 -95 -252 -243 -259zM327 -14c-148 7 -244 94 -244 259v404h118v-404c0 -53 12 -91 37 -113c25 -21 55 -33 89 -36v-110z" />
    <glyph glyph-name="Ucircumflex" unicode="&#xdb;" horiz-adv-x="690" 
d="M346 913l208 -161l-75 -59l-133 101l-134 -101l-75 59zM366 -14v110c33 3 62 16 87 37s38 59 38 112v404h118v-404c0 -165 -95 -252 -243 -259zM327 -14c-148 7 -244 94 -244 259v404h118v-404c0 -53 12 -91 37 -113c25 -21 55 -33 89 -36v-110z" />
    <glyph glyph-name="Udieresis" unicode="&#xdc;" horiz-adv-x="690" 
d="M250 881c41 0 71 -28 71 -67c0 -37 -30 -65 -71 -65s-70 28 -70 65c0 39 29 67 70 67zM373 815c0 39 30 67 70 67c41 0 71 -28 71 -67s-30 -65 -71 -65c-40 0 -70 26 -70 65zM366 -14v110c33 3 62 16 87 37s38 59 38 112v404h118v-404c0 -165 -95 -252 -243 -259z
M327 -14c-148 7 -244 94 -244 259v404h118v-404c0 -53 12 -91 37 -113c25 -21 55 -33 89 -36v-110z" />
    <glyph glyph-name="agrave" unicode="&#xe0;" horiz-adv-x="585" 
d="M143 662l42 102l267 -132l-30 -74zM387 190v75v48c0 68 -25 100 -88 100c-61 0 -96 -26 -96 -71h-129c0 111 82 157 222 157c100 0 165 -35 194 -105c10 -24 15 -52 15 -85v-309h-103l-9 65c-31 -53 -79 -79 -144 -79c-63 0 -111 15 -146 46c-32 29 -48 66 -48 111
s18 80 53 104c35 25 84 37 145 37c28 0 59 -3 94 -10v-75c-25 5 -48 7 -70 7c-64 0 -96 -21 -96 -64c0 -36 28 -66 92 -66c65 0 111 49 114 114z" />
    <glyph glyph-name="aacute" unicode="&#xe1;" horiz-adv-x="585" 
d="M409 764l42 -102l-279 -104l-30 74zM387 190v75v48c0 68 -25 100 -88 100c-61 0 -96 -26 -96 -71h-129c0 111 82 157 222 157c100 0 165 -35 194 -105c10 -24 15 -52 15 -85v-309h-103l-9 65c-31 -53 -79 -79 -144 -79c-63 0 -111 15 -146 46c-32 29 -48 66 -48 111
s18 80 53 104c35 25 84 37 145 37c28 0 59 -3 94 -10v-75c-25 5 -48 7 -70 7c-64 0 -96 -21 -96 -64c0 -36 28 -66 92 -66c65 0 111 49 114 114z" />
    <glyph glyph-name="acircumflex" unicode="&#xe2;" horiz-adv-x="585" 
d="M298 777l208 -161l-75 -59l-133 101l-134 -101l-75 59zM387 190v75v48c0 68 -25 100 -88 100c-61 0 -96 -26 -96 -71h-129c0 111 82 157 222 157c100 0 165 -35 194 -105c10 -24 15 -52 15 -85v-309h-103l-9 65c-31 -53 -79 -79 -144 -79c-63 0 -111 15 -146 46
c-32 29 -48 66 -48 111s18 80 53 104c35 25 84 37 145 37c28 0 59 -3 94 -10v-75c-25 5 -48 7 -70 7c-64 0 -96 -21 -96 -64c0 -36 28 -66 92 -66c65 0 111 49 114 114z" />
    <glyph glyph-name="atilde" unicode="&#xe3;" horiz-adv-x="585" 
d="M368 702c21 0 39 16 53 49l50 -33c-15 -72 -57 -123 -100 -123c-24 0 -44 10 -79 27c-30 15 -50 23 -61 23c-23 0 -43 -17 -59 -50l-47 28c16 81 56 128 107 128c18 0 39 -6 63 -19c48 -24 57 -30 73 -30zM387 190v75v48c0 68 -25 100 -88 100c-61 0 -96 -26 -96 -71
h-129c0 111 82 157 222 157c100 0 165 -35 194 -105c10 -24 15 -52 15 -85v-309h-103l-9 65c-31 -53 -79 -79 -144 -79c-63 0 -111 15 -146 46c-32 29 -48 66 -48 111s18 80 53 104c35 25 84 37 145 37c28 0 59 -3 94 -10v-75c-25 5 -48 7 -70 7c-64 0 -96 -21 -96 -64
c0 -36 28 -66 92 -66c65 0 111 49 114 114z" />
    <glyph glyph-name="adieresis" unicode="&#xe4;" horiz-adv-x="585" 
d="M201 745c41 0 71 -28 71 -67c0 -37 -30 -65 -71 -65s-70 28 -70 65c0 39 29 67 70 67zM324 679c0 39 30 67 70 67c41 0 71 -28 71 -67s-30 -65 -71 -65c-40 0 -70 26 -70 65zM387 190v75v48c0 68 -25 100 -88 100c-61 0 -96 -26 -96 -71h-129c0 111 82 157 222 157
c100 0 165 -35 194 -105c10 -24 15 -52 15 -85v-309h-103l-9 65c-31 -53 -79 -79 -144 -79c-63 0 -111 15 -146 46c-32 29 -48 66 -48 111s18 80 53 104c35 25 84 37 145 37c28 0 59 -3 94 -10v-75c-25 5 -48 7 -70 7c-64 0 -96 -21 -96 -64c0 -36 28 -66 92 -66
c65 0 111 49 114 114z" />
    <glyph glyph-name="egrave" unicode="&#xe8;" horiz-adv-x="530" 
d="M112 672l42 102l267 -132l-30 -74zM204 213v76h168c0 53 -17 88 -50 106c-13 7 -28 10 -46 10c-67 0 -105 -48 -112 -116v-75c3 -79 38 -133 111 -133c49 0 78 21 87 64h119c-8 -49 -30 -87 -67 -115c-38 -29 -84 -44 -139 -44c-64 0 -118 23 -161 70
c-45 49 -67 111 -67 187c0 78 22 141 67 188c43 45 96 68 161 68c67 0 120 -24 157 -71c53 -67 55 -164 46 -214z" />
    <glyph glyph-name="eacute" unicode="&#xe9;" horiz-adv-x="530" 
d="M378 774l42 -102l-279 -104l-30 74zM204 213v76h168c0 53 -17 88 -50 106c-13 7 -28 10 -46 10c-67 0 -105 -48 -112 -116v-75c3 -79 38 -133 111 -133c49 0 78 21 87 64h119c-8 -49 -30 -87 -67 -115c-38 -29 -84 -44 -139 -44c-64 0 -118 23 -161 70
c-45 49 -67 111 -67 187c0 78 22 141 67 188c43 45 96 68 161 68c67 0 120 -24 157 -71c53 -67 55 -164 46 -214z" />
    <glyph glyph-name="ecircumflex" unicode="&#xea;" horiz-adv-x="530" 
d="M272 787l208 -161l-75 -59l-133 101l-134 -101l-75 59zM204 213v76h168c0 53 -17 88 -50 106c-13 7 -28 10 -46 10c-67 0 -105 -48 -112 -116v-75c3 -79 38 -133 111 -133c49 0 78 21 87 64h119c-8 -49 -30 -87 -67 -115c-38 -29 -84 -44 -139 -44c-64 0 -118 23 -161 70
c-45 49 -67 111 -67 187c0 78 22 141 67 188c43 45 96 68 161 68c67 0 120 -24 157 -71c53 -67 55 -164 46 -214z" />
    <glyph glyph-name="edieresis" unicode="&#xeb;" horiz-adv-x="530" 
d="M169 745c41 0 71 -28 71 -67c0 -37 -30 -65 -71 -65s-70 28 -70 65c0 39 29 67 70 67zM292 679c0 39 30 67 70 67c41 0 71 -28 71 -67s-30 -65 -71 -65c-40 0 -70 26 -70 65zM204 213v76h168c0 53 -17 88 -50 106c-13 7 -28 10 -46 10c-67 0 -105 -48 -112 -116v-75
c3 -79 38 -133 111 -133c49 0 78 21 87 64h119c-8 -49 -30 -87 -67 -115c-38 -29 -84 -44 -139 -44c-64 0 -118 23 -161 70c-45 49 -67 111 -67 187c0 78 22 141 67 188c43 45 96 68 161 68c67 0 120 -24 157 -71c53 -67 55 -164 46 -214z" />
    <glyph glyph-name="igrave" unicode="&#xec;" horiz-adv-x="328" 
d="M103 0v487h118v-487h-118zM8 662l42 102l267 -132l-30 -74z" />
    <glyph glyph-name="iacute" unicode="&#xed;" horiz-adv-x="328" 
d="M103 0v487h118v-487h-118zM274 764l42 -102l-279 -104l-30 74z" />
    <glyph glyph-name="icircumflex" unicode="&#xee;" horiz-adv-x="328" 
d="M103 0v487h118v-487h-118zM162 777l208 -161l-75 -59l-133 101l-134 -101l-75 59z" />
    <glyph glyph-name="idieresis" unicode="&#xef;" horiz-adv-x="328" 
d="M103 0v487h118v-487h-118zM65 745c41 0 71 -28 71 -67c0 -37 -30 -65 -71 -65s-70 28 -70 65c0 39 29 67 70 67zM188 679c0 39 30 67 70 67c41 0 71 -28 71 -67s-30 -65 -71 -65c-40 0 -70 26 -70 65z" />
    <glyph glyph-name="ntilde" unicode="&#xf1;" horiz-adv-x="623" 
d="M363 499c120 0 181 -86 181 -215v-284h-118v284c0 72 -36 109 -99 109s-113 -56 -116 -168v-225h-118v486h103l13 -84c32 65 83 97 154 97zM384 702c21 0 39 16 53 49l50 -33c-15 -72 -57 -123 -100 -123c-24 0 -44 10 -79 27c-30 15 -50 23 -61 23
c-23 0 -43 -17 -59 -50l-47 28c16 81 56 128 107 128c18 0 39 -6 63 -19c48 -24 57 -30 73 -30z" />
    <glyph glyph-name="ograve" unicode="&#xf2;" horiz-adv-x="566" 
d="M130 662l42 102l267 -132l-30 -74zM263 -13c-60 4 -109 25 -147 63c-46 46 -69 110 -69 192c0 83 23 148 69 194c37 37 86 58 147 62v-101c-19 0 -40 -13 -63 -39c-23 -25 -34 -64 -34 -115c0 -103 42 -146 97 -153v-103zM304 91c25 5 47 18 67 41s30 60 30 111
c0 103 -41 146 -97 153v102c51 -3 105 -19 146 -62c46 -47 69 -111 69 -194c0 -81 -23 -145 -69 -192c-37 -39 -86 -60 -146 -63v104z" />
    <glyph glyph-name="oacute" unicode="&#xf3;" horiz-adv-x="566" 
d="M396 764l42 -102l-279 -104l-30 74zM263 -13c-60 4 -109 25 -147 63c-46 46 -69 110 -69 192c0 83 23 148 69 194c37 37 86 58 147 62v-101c-19 0 -40 -13 -63 -39c-23 -25 -34 -64 -34 -115c0 -103 42 -146 97 -153v-103zM304 91c25 5 47 18 67 41s30 60 30 111
c0 103 -41 146 -97 153v102c51 -3 105 -19 146 -62c46 -47 69 -111 69 -194c0 -81 -23 -145 -69 -192c-37 -39 -86 -60 -146 -63v104z" />
    <glyph glyph-name="ocircumflex" unicode="&#xf4;" horiz-adv-x="566" 
d="M284 777l208 -161l-75 -59l-133 101l-134 -101l-75 59zM263 -13c-60 4 -109 25 -147 63c-46 46 -69 110 -69 192c0 83 23 148 69 194c37 37 86 58 147 62v-101c-19 0 -40 -13 -63 -39c-23 -25 -34 -64 -34 -115c0 -103 42 -146 97 -153v-103zM304 91c25 5 47 18 67 41
s30 60 30 111c0 103 -41 146 -97 153v102c51 -3 105 -19 146 -62c46 -47 69 -111 69 -194c0 -81 -23 -145 -69 -192c-37 -39 -86 -60 -146 -63v104z" />
    <glyph glyph-name="otilde" unicode="&#xf5;" horiz-adv-x="566" 
d="M353 702c21 0 39 16 53 49l50 -33c-15 -72 -57 -123 -100 -123c-24 0 -44 10 -80 27c-29 15 -49 23 -60 23c-23 0 -43 -17 -59 -50l-47 28c16 81 56 128 107 128c18 0 39 -6 63 -19c48 -24 57 -30 73 -30zM263 -13c-60 4 -109 25 -147 63c-46 46 -69 110 -69 192
c0 83 23 148 69 194c37 37 86 58 147 62v-101c-19 0 -40 -13 -63 -39c-23 -25 -34 -64 -34 -115c0 -103 42 -146 97 -153v-103zM304 91c25 5 47 18 67 41s30 60 30 111c0 103 -41 146 -97 153v102c51 -3 105 -19 146 -62c46 -47 69 -111 69 -194c0 -81 -23 -145 -69 -192
c-37 -39 -86 -60 -146 -63v104z" />
    <glyph glyph-name="odieresis" unicode="&#xf6;" horiz-adv-x="566" 
d="M187 745c41 0 71 -28 71 -67c0 -37 -30 -65 -71 -65s-70 28 -70 65c0 39 29 67 70 67zM310 679c0 39 30 67 70 67c41 0 71 -28 71 -67s-30 -65 -71 -65c-40 0 -70 26 -70 65zM263 -13c-60 4 -109 25 -147 63c-46 46 -69 110 -69 192c0 83 23 148 69 194
c37 37 86 58 147 62v-101c-19 0 -40 -13 -63 -39c-23 -25 -34 -64 -34 -115c0 -103 42 -146 97 -153v-103zM304 91c25 5 47 18 67 41s30 60 30 111c0 103 -41 146 -97 153v102c51 -3 105 -19 146 -62c46 -47 69 -111 69 -194c0 -81 -23 -145 -69 -192
c-37 -39 -86 -60 -146 -63v104z" />
    <glyph glyph-name="ugrave" unicode="&#xf9;" horiz-adv-x="627" 
d="M416 0v88c-31 -65 -80 -97 -148 -97c-86 0 -143 34 -170 101c-10 23 -15 52 -15 85v310h118v-298c0 -64 35 -95 79 -95c45 0 74 13 97 38c25 29 38 67 39 115v240h118v-487h-118zM159 682l42 102l267 -132l-30 -74z" />
    <glyph glyph-name="uacute" unicode="&#xfa;" horiz-adv-x="627" 
d="M268 -9c-57 0 -101 14 -132 43c-35 33 -53 80 -53 143v310h118v-298c0 -64 30 -95 94 -95c33 0 60 13 83 40c25 29 38 70 38 121v232h118v-487h-118v88c-31 -65 -80 -97 -148 -97zM425 784l42 -102l-279 -104l-30 74z" />
    <glyph glyph-name="ucircumflex" unicode="&#xfb;" horiz-adv-x="627" 
d="M416 0v88c-31 -65 -80 -97 -148 -97c-86 0 -143 34 -170 101c-10 23 -15 52 -15 85v310h118v-298c0 -64 35 -95 79 -95c45 0 74 13 97 38c25 29 38 67 39 115v240h118v-487h-118zM313 797l208 -161l-75 -59l-133 101l-134 -101l-75 59z" />
    <glyph glyph-name="udieresis" unicode="&#xfc;" horiz-adv-x="627" 
d="M416 0v88c-31 -65 -80 -97 -148 -97c-86 0 -143 34 -170 101c-10 23 -15 52 -15 85v310h118v-298c0 -64 35 -95 79 -95c45 0 74 13 97 38c25 29 38 67 39 115v240h118v-487h-118zM216 745c41 0 71 -28 71 -67c0 -37 -30 -65 -71 -65s-70 28 -70 65c0 39 29 67 70 67z
M339 679c0 39 30 67 70 67c41 0 71 -28 71 -67s-30 -65 -71 -65c-40 0 -70 26 -70 65z" />
    <glyph glyph-name="circumflex" unicode="&#x2c6;" horiz-adv-x="465" 
d="M233 913l208 -161l-75 -59l-133 101l-134 -101l-75 59z" />
    <glyph glyph-name="tilde" unicode="&#x2dc;" horiz-adv-x="394" 
d="M266 838c21 0 39 16 53 49l50 -33c-15 -72 -57 -123 -100 -123c-24 0 -44 10 -79 27c-30 15 -50 23 -61 23c-23 0 -43 -17 -59 -50l-47 28c16 81 56 128 107 128c18 0 39 -6 63 -19c48 -24 57 -30 73 -30z" />
    <glyph glyph-name="endash" unicode="&#x2013;" horiz-adv-x="525" 
d="M55 250v103h415v-103h-415z" />
    <glyph glyph-name="emdash" unicode="&#x2014;" horiz-adv-x="768" 
d="M55 250v103h659v-103h-659z" />
    <glyph glyph-name="quoteleft" unicode="&#x2018;" horiz-adv-x="271" 
d="M155 652l83 -46c-51 -24 -82 -53 -93 -87c37 -7 67 -29 67 -69c0 -39 -32 -71 -85 -71s-91 48 -91 109c0 63 47 128 119 164z" />
    <glyph glyph-name="quoteright" unicode="&#x2019;" horiz-adv-x="271" 
d="M111 379l-82 45c51 26 82 55 93 88c-39 7 -68 29 -68 69s33 71 85 71c53 0 91 -47 91 -110c0 -61 -47 -127 -119 -163z" />
    <glyph glyph-name="ccedilla" unicode="&#xe7;" horiz-adv-x="833" 
d="M332 -23l-19 -36c13 7 26 10 39 9c39 0 57 -22 54 -66c-3 -47 -28 -70 -73 -71c-45 -2 -69 18 -73 59h47c1 -15 9 -23 25 -23c17 0 26 15 27 44c0 19 -12 28 -36 27c-12 -1 -23 -7 -32 -18h-30l35 78c-47 8 -88 30 -122 67c-46 50 -69 112 -69 187c0 79 23 142 69 189
c43 45 97 67 162 67c61 0 111 -23 144 -56c33 -32 53 -72 59 -121l-119 -3c-11 43 -42 74 -79 74s-63 -11 -83 -35c-23 -28 -34 -67 -34 -116s11 -87 32 -112s47 -37 77 -37c61 0 87 31 87 80h119c0 -53 -18 -98 -53 -133c-36 -36 -86 -54 -151 -54h-3z" />
    <glyph glyph-name="ae" unicode="&#xe6;" horiz-adv-x="833" 
d="M298 78l-9 -14c-31 -53 -79 -79 -144 -79c-63 0 -111 15 -146 46c-32 29 -48 66 -48 111s18 80 53 104c35 25 84 37 145 37c28 0 59 -3 94 -10v-75c-25 5 -48 7 -70 7c-64 0 -96 -21 -96 -64c0 -36 28 -66 92 -66c65 0 111 49 114 114v75v48c0 68 -25 100 -88 100
c-61 0 -96 -26 -96 -71h-129c0 111 82 157 222 157c68 0 118 -16 151 -47c38 30 83 45 136 45c67 0 120 -24 157 -71c53 -67 55 -164 46 -214l-274 -1v76h168c0 53 -17 88 -50 106c-13 7 -28 10 -46 10c-67 0 -110 -46 -117 -114v-84c9 -69 43 -126 116 -126
c49 0 78 21 87 64h119c-8 -49 -30 -87 -67 -115c-38 -29 -84 -44 -139 -44c-64 0 -118 23 -161 70c-7 8 -14 16 -20 25z" />
    <glyph glyph-name="oe" unicode="&#x153;" horiz-adv-x="833" 
d="M207 -21v103c-55 7 -97 50 -97 153c0 51 11 90 34 115c23 26 44 39 63 39v101c-61 -4 -110 -25 -147 -62c-46 -46 -69 -111 -69 -194c0 -82 23 -146 69 -192c38 -38 87 -59 147 -63zM380 38c-35 -36 -82 -56 -142 -59v104c25 5 47 18 67 41s30 60 30 111
c0 103 -41 146 -97 153v102c51 -3 101 -19 141 -56c33 38 78 57 137 57c67 0 120 -24 157 -71c53 -67 55 -164 46 -214l-274 -1v76h168c0 53 -17 88 -50 106c-13 7 -28 10 -46 10c-67 0 -105 -48 -112 -116v-75c3 -79 38 -133 111 -133c49 0 78 21 87 64h119
c-8 -49 -30 -87 -67 -115c-38 -29 -84 -44 -139 -44c-57 0 -103 20 -136 60z" />
    <glyph glyph-name="Ccedilla" unicode="&#xc7;" horiz-adv-x="833" 
d="M334 -15l-21 -39c13 7 26 10 39 9c39 0 57 -22 54 -66c-3 -50 -28 -75 -73 -76c-45 -2 -69 19 -73 64h47c1 -15 9 -23 25 -23c17 0 26 15 27 44c0 19 -12 28 -36 27c-12 -1 -23 -7 -32 -18h-30l36 80c-71 7 -129 36 -173 89c-51 61 -77 145 -77 250c0 107 26 190 79 250
c51 57 117 86 200 86c80 0 137 -20 180 -55c42 -34 69 -82 82 -143l-126 -23c-21 68 -66 114 -133 114c-45 0 -82 -19 -110 -57c-30 -41 -45 -99 -45 -172s13 -130 40 -171s63 -61 109 -61c92 0 139 49 139 120h127c0 -145 -100 -228 -255 -229z" />
  </font>
</defs>
</svg>
